<svg width="31" height="44" viewBox="0 0 31 44" fill="none" xmlns="http://www.w3.org/2000/svg">
<path d="M-0.00195312 4.4C-0.00195312 3.23305 0.404541 2.11389 1.1281 1.28873C1.85167 0.46357 2.83303 0 3.8563 0H19.2893C19.8009 0.000124602 20.2915 0.231991 20.6532 0.6446L30.2989 11.6446C30.6607 12.0571 30.864 12.6166 30.8641 13.2V39.6C30.8641 40.767 30.4576 41.8861 29.7341 42.7113C29.0105 43.5364 28.0291 44 27.0059 44H3.8563C2.83303 44 1.85167 43.5364 1.1281 42.7113C0.404541 41.8861 -0.00195312 40.767 -0.00195312 39.6V4.4ZM26.2072 13.2L19.2893 5.3108V13.2H26.2072ZM15.4311 4.4H3.8563V39.6H27.0059V17.6H17.3602C16.8486 17.6 16.3579 17.3682 15.9961 16.9556C15.6343 16.5431 15.4311 15.9835 15.4311 15.4V4.4ZM7.71456 24.2C7.71456 23.6165 7.91781 23.0569 8.27959 22.6444C8.64137 22.2318 9.13206 22 9.64369 22H21.2185C21.7301 22 22.2208 22.2318 22.5826 22.6444C22.9443 23.0569 23.1476 23.6165 23.1476 24.2C23.1476 24.7835 22.9443 25.3431 22.5826 25.7556C22.2208 26.1682 21.7301 26.4 21.2185 26.4H9.64369C9.13206 26.4 8.64137 26.1682 8.27959 25.7556C7.91781 25.3431 7.71456 24.7835 7.71456 24.2ZM7.71456 33C7.71456 32.4165 7.91781 31.8569 8.27959 31.4444C8.64137 31.0318 9.13206 30.8 9.64369 30.8H21.2185C21.7301 30.8 22.2208 31.0318 22.5826 31.4444C22.9443 31.8569 23.1476 32.4165 23.1476 33C23.1476 33.5835 22.9443 34.1431 22.5826 34.5556C22.2208 34.9682 21.7301 35.2 21.2185 35.2H9.64369C9.13206 35.2 8.64137 34.9682 8.27959 34.5556C7.91781 34.1431 7.71456 33.5835 7.71456 33Z" fill="#CD82A6"/>
</svg>
