<svg width="44" height="44" viewBox="0 0 44 44" fill="none" xmlns="http://www.w3.org/2000/svg">
<path d="M21.856 3.81896C19.3127 1.21823 15.9797 -0.147485 12.5666 0.0126461C9.15355 0.172777 5.93013 1.8461 3.58282 4.67628C1.23551 7.50646 -0.0502172 11.2699 -0.000566836 15.165C0.0490835 19.0602 1.43019 22.7794 3.84864 25.5306L18.767 42.5412C19.5863 43.4753 20.6974 44 21.856 44C23.0145 44 24.1256 43.4753 24.9449 42.5412L39.8633 25.5306C42.2817 22.7794 43.6629 19.0602 43.7125 15.165C43.7622 11.2699 42.4764 7.50646 40.1291 4.67628C37.7818 1.8461 34.5584 0.172777 31.1453 0.0126461C27.7322 -0.147485 24.3992 1.21823 21.856 3.81896ZM19.2957 7.91465L20.3115 9.07061C20.7211 9.53766 21.2767 9.80003 21.856 9.80003C22.4352 9.80003 22.9908 9.53766 23.4004 9.07061L24.4163 7.91465C25.2223 6.96287 26.1866 6.2037 27.2527 5.68144C28.3188 5.15917 29.4654 4.88427 30.6257 4.87278C31.7859 4.86128 32.9366 5.11341 34.0105 5.61447C35.0844 6.11553 36.06 6.85547 36.8805 7.79113C37.7009 8.72679 38.3498 9.83942 38.7891 11.0641C39.2285 12.2888 39.4496 13.601 39.4395 14.9242C39.4294 16.2473 39.1884 17.555 38.7304 18.7708C38.2724 19.9866 37.6067 21.0862 36.7721 22.0054L21.856 39.0185L6.9398 22.0054C5.34806 20.126 4.46729 17.6087 4.4872 14.9959C4.50711 12.3831 5.4261 9.88367 7.04624 8.03604C8.66638 6.18842 10.858 5.14039 13.1492 5.11768C15.4403 5.09498 17.6476 6.09941 19.2957 7.91465Z" fill="#CD82A6"/>
</svg>
