<svg width="43" height="44" viewBox="0 0 43 44" fill="none" xmlns="http://www.w3.org/2000/svg">
<path d="M-0.00195309 4.84444C-0.00195309 3.55962 0.445601 2.32741 1.24225 1.4189C2.0389 0.510395 3.11939 0 4.24603 0H38.2299C39.3565 0 40.437 0.510395 41.2337 1.4189C42.0303 2.32741 42.4779 3.55962 42.4779 4.84444V9.68889C42.478 10.5474 42.278 11.3905 41.8984 12.132C41.5189 12.8734 40.9734 13.4864 40.3178 13.9084C40.3411 14.1119 40.3539 14.3202 40.3539 14.5333V38.7556C40.3539 40.0404 39.9063 41.2726 39.1097 42.1811C38.313 43.0896 37.2325 43.6 36.1059 43.6H6.37002C5.24338 43.6 4.16289 43.0896 3.36624 42.1811C2.56959 41.2726 2.12204 40.0404 2.12204 38.7556V14.5333C2.12204 14.3226 2.13478 14.1119 2.15815 13.9084C1.50254 13.4864 0.95703 12.8734 0.577476 12.132C0.197922 11.3905 -0.00204525 10.5474 -0.00195309 9.68889V4.84444ZM38.2299 9.68889V4.84444H4.24603V9.68889H38.2299ZM6.37002 14.5333V38.7556H36.1059V14.5333H6.37002ZM12.742 21.8C12.742 21.1576 12.9658 20.5415 13.3641 20.0872C13.7624 19.633 14.3027 19.3778 14.866 19.3778H27.6099C28.1732 19.3778 28.7135 19.633 29.1118 20.0872C29.5101 20.5415 29.7339 21.1576 29.7339 21.8C29.7339 22.4424 29.5101 23.0585 29.1118 23.5128C28.7135 23.967 28.1732 24.2222 27.6099 24.2222H14.866C14.3027 24.2222 13.7624 23.967 13.3641 23.5128C12.9658 23.0585 12.742 22.4424 12.742 21.8Z" fill="#CD82A6"/>
</svg>
