<svg width="49" height="44" viewBox="0 0 49 44" fill="none" xmlns="http://www.w3.org/2000/svg">
<path d="M0 5.5C0 4.04131 0.508117 2.64236 1.41257 1.61091C2.31703 0.579462 3.54373 0 4.82282 0H26.5255C27.8046 0 29.0313 0.579462 29.9358 1.61091C30.8402 2.64236 31.3484 4.04131 31.3484 5.5V11C31.3484 11.7293 31.0943 12.4288 30.6421 12.9445C30.1898 13.4603 29.5765 13.75 28.9369 13.75C28.2974 13.75 27.684 13.4603 27.2318 12.9445C26.7796 12.4288 26.5255 11.7293 26.5255 11V5.5H4.82282V38.5H26.5255V33C26.5255 32.2707 26.7796 31.5712 27.2318 31.0555C27.684 30.5397 28.2974 30.25 28.9369 30.25C29.5765 30.25 30.1898 30.5397 30.6421 31.0555C31.0943 31.5712 31.3484 32.2707 31.3484 33V38.5C31.3484 39.9587 30.8402 41.3576 29.9358 42.3891C29.0313 43.4205 27.8046 44 26.5255 44H4.82282C3.54373 44 2.31703 43.4205 1.41257 42.3891C0.508117 41.3576 0 39.9587 0 38.5V5.5ZM36.8777 11.8058C37.3299 11.2902 37.9432 11.0006 38.5826 11.0006C39.222 11.0006 39.8352 11.2902 40.2875 11.8058L47.5217 20.0557C47.9738 20.5715 48.2277 21.2708 48.2277 22C48.2277 22.7292 47.9738 23.4285 47.5217 23.9443L40.2875 32.1942C39.8327 32.6952 39.2235 32.9724 38.5913 32.9661C37.959 32.9598 37.3542 32.6706 36.9071 32.1608C36.46 31.6509 36.2064 30.9611 36.2009 30.2401C36.1954 29.5191 36.4385 28.8244 36.8777 28.3057L39.9957 24.75H16.8799C16.2403 24.75 15.627 24.4603 15.1748 23.9445C14.7225 23.4288 14.4685 22.7293 14.4685 22C14.4685 21.2707 14.7225 20.5712 15.1748 20.0555C15.627 19.5397 16.2403 19.25 16.8799 19.25H39.9957L36.8777 15.6942C36.4256 15.1785 36.1717 14.4792 36.1717 13.75C36.1717 13.0208 36.4256 12.3215 36.8777 11.8058Z" fill="#CD82A6"/>
</svg>
