<svg width="16" height="16" viewBox="0 0 16 16" fill="none" xmlns="http://www.w3.org/2000/svg">
<path d="M11.2339 0.334416C11.3919 0.179041 11.6051 0.0927621 11.8266 0.094553C12.0482 0.0963438 12.26 0.186058 12.4154 0.343966L15.7306 3.71319C15.886 3.87115 15.9722 4.08434 15.9705 4.3059C15.9687 4.52746 15.8789 4.73924 15.721 4.89466L4.77106 15.669C4.61313 15.8245 4.39993 15.9108 4.17835 15.9091L0.836138 15.8821C0.614536 15.8803 0.402721 15.7905 0.247291 15.6326C0.0918616 15.4746 0.00554835 15.2614 0.00733957 15.0398L0.0343547 11.6976C0.0361931 11.476 0.125973 11.2642 0.283946 11.1088L8.70701 2.82081L11.2339 0.334416ZM9.28342 4.59779L1.70266 12.057L1.6852 14.2177L3.84594 14.2352L11.4267 6.776L9.28342 4.59779ZM12.6177 5.60408L13.9536 4.2896L11.8103 2.1114L10.4744 3.42587L12.6177 5.60408Z" fill="white"/>
</svg>
