<svg width="94" height="89" viewBox="0 0 94 89" fill="none" xmlns="http://www.w3.org/2000/svg">
<path d="M47 8.9C41.4599 8.9 36.1468 10.7754 32.2293 14.1135C28.3119 17.4516 26.1111 21.9791 26.1111 26.7C26.1111 31.4209 28.3119 35.9484 32.2293 39.2865C36.1468 42.6246 41.4599 44.5 47 44.5C52.5401 44.5 57.8532 42.6246 61.7707 39.2865C65.6881 35.9484 67.8889 31.4209 67.8889 26.7C67.8889 21.9791 65.6881 17.4516 61.7707 14.1135C57.8532 10.7754 52.5401 8.9 47 8.9ZM15.6667 26.7C15.6667 19.6187 18.9678 12.8275 24.844 7.82025C30.7201 2.81303 38.6899 0 47 0C55.3101 0 63.2799 2.81303 69.156 7.82025C75.0322 12.8275 78.3333 19.6187 78.3333 26.7C78.3333 33.7813 75.0322 40.5725 69.156 45.5798C63.2799 50.587 55.3101 53.4 47 53.4C38.6899 53.4 30.7201 50.587 24.844 45.5798C18.9678 40.5725 15.6667 33.7813 15.6667 26.7ZM26.1111 71.2C21.9561 71.2 17.9712 72.6065 15.0331 75.1101C12.095 77.6137 10.4444 81.0094 10.4444 84.55C10.4444 85.7302 9.89425 86.8621 8.91489 87.6966C7.93553 88.5312 6.60724 89 5.22222 89C3.8372 89 2.50891 88.5312 1.52955 87.6966C0.550197 86.8621 0 85.7302 0 84.55C0 78.6489 2.75098 72.9896 7.64777 68.8169C12.5446 64.6442 19.186 62.3 26.1111 62.3H67.8889C74.814 62.3 81.4555 64.6442 86.3522 68.8169C91.249 72.9896 94 78.6489 94 84.55C94 85.7302 93.4498 86.8621 92.4705 87.6966C91.4911 88.5312 90.1628 89 88.7778 89C87.3928 89 86.0645 88.5312 85.0851 87.6966C84.1058 86.8621 83.5556 85.7302 83.5556 84.55C83.5556 81.0094 81.905 77.6137 78.9669 75.1101C76.0288 72.6065 72.044 71.2 67.8889 71.2H26.1111Z" fill="#CD82A6"/>
</svg>
