<svg width="44" height="44" viewBox="0 0 44 44" fill="none" xmlns="http://www.w3.org/2000/svg">
<path d="M21.9994 5.02496C19.4093 5.02496 16.9252 5.91917 15.0936 7.51087C13.2621 9.10256 12.2332 11.2614 12.2332 13.5124C12.2332 15.7634 13.2621 17.9222 15.0936 19.5139C16.9252 21.1056 19.4093 21.9998 21.9994 21.9998C24.5896 21.9998 27.0737 21.1056 28.9052 19.5139C30.7367 17.9222 31.7657 15.7634 31.7657 13.5124C31.7657 11.2614 30.7367 9.10256 28.9052 7.51087C27.0737 5.91917 24.5896 5.02496 21.9994 5.02496ZM7.35007 13.5124C7.35007 10.1359 8.89348 6.89766 11.6408 4.51011C14.388 2.12256 18.1142 0.78125 21.9994 0.78125C25.8847 0.78125 29.6108 2.12256 32.3581 4.51011C35.1054 6.89766 36.6488 10.1359 36.6488 13.5124C36.6488 16.8889 35.1054 20.1271 32.3581 22.5146C29.6108 24.9022 25.8847 26.2435 21.9994 26.2435C18.1142 26.2435 14.388 24.9022 11.6408 22.5146C8.89348 20.1271 7.35007 16.8889 7.35007 13.5124ZM12.2332 34.7309C10.2906 34.7309 8.4275 35.4016 7.05386 36.5953C5.68021 37.7891 4.90851 39.4082 4.90851 41.0965C4.90851 41.6592 4.65127 42.1989 4.19339 42.5969C3.73551 42.9948 3.11449 43.2183 2.46695 43.2183C1.81941 43.2183 1.19839 42.9948 0.740506 42.5969C0.282625 42.1989 0.0253906 41.6592 0.0253906 41.0965C0.0253906 38.2827 1.31157 35.5842 3.60097 33.5946C5.89038 31.605 8.99547 30.4872 12.2332 30.4872H31.7657C35.0034 30.4872 38.1085 31.605 40.3979 33.5946C42.6873 35.5842 43.9734 38.2827 43.9734 41.0965C43.9734 41.6592 43.7162 42.1989 43.2583 42.5969C42.8004 42.9948 42.1794 43.2183 41.5319 43.2183C40.8843 43.2183 40.2633 42.9948 39.8054 42.5969C39.3476 42.1989 39.0903 41.6592 39.0903 41.0965C39.0903 39.4082 38.3186 37.7891 36.945 36.5953C35.5713 35.4016 33.7083 34.7309 31.7657 34.7309H12.2332Z" fill="#FEFEFE"/>
</svg>
